<?xml version="1.0" encoding="iso-8859-1"?>
<!-- Uploaded to: SVG Repo, www.svgrepo.com, Generator: SVG Repo Mixer Tools -->
<svg fill="#000000" height="800px" width="800px" version="1.1" id="Layer_1" xmlns="http://www.w3.org/2000/svg" xmlns:xlink="http://www.w3.org/1999/xlink" 
	 viewBox="0 0 512.002 512.002" xml:space="preserve">
<g>
	<g>
		<path d="M409.6,187.879v-59.878c0-8.559-4.275-16.555-11.401-21.299l-76.8-51.2c-4.207-2.807-9.148-4.301-14.199-4.301H102.4
			c-5.052,0-9.993,1.493-14.199,4.301l-76.8,51.2C4.275,111.446,0,119.442,0,128.001v307.2c0,14.14,11.46,25.6,25.6,25.6H384
			c14.14,0,25.6-11.46,25.6-25.6h-384v-294.4h128v166.4h25.685l-0.085-166.4h51.2v92.535c7.62-6.588,16.23-13.252,25.6-19.601
			v-72.934h128v40.789C392.815,183.084,401.391,185.132,409.6,187.879z M153.6,115.201H44.8l57.6-38.4h51.2V115.201z M230.4,115.201
			h-51.2v-38.4h51.2V115.201z M256,115.201v-38.4h51.2l57.6,38.4H256z"/>
	</g>
</g>
<g>
	<g>
		<path d="M506.914,291.892c-2.654-3.558-65.928-87.091-148.514-87.091s-145.86,83.533-148.514,87.091
			c-6.775,9.079-6.775,21.538,0,30.618c2.654,3.558,65.937,87.091,148.514,87.091s145.86-83.533,148.514-87.091
			C513.698,313.43,513.698,300.972,506.914,291.892z M358.4,384.001c-70.69,0-128-76.8-128-76.8s57.31-76.8,128-76.8
			s128,76.8,128,76.8S429.09,384.001,358.4,384.001z"/>
	</g>
</g>
<g>
	<g>
		<path d="M358.4,256.001c-28.279,0-51.2,22.921-51.2,51.2s22.921,51.2,51.2,51.2s51.2-22.921,51.2-51.2
			S386.68,256.001,358.4,256.001z M358.4,332.801c-14.114,0-25.6-11.486-25.6-25.6s11.486-25.6,25.6-25.6s25.6,11.486,25.6,25.6
			S372.514,332.801,358.4,332.801z"/>
	</g>
</g>
</svg>